# Blender 3.5.1
# www.blender.org
mtllib LE_blockout_bookshelf_small.mtl
o Bookshelf_small
v 6.906425 -0.018859 -8.249158
v 7.506425 -0.018859 -8.249158
v 6.906425 -0.018859 -7.249158
v 7.506425 -0.018859 -7.249158
v 6.906425 1.981141 -8.249158
v 6.906425 0.981141 -8.249158
v 7.506425 1.981141 -8.249158
v 7.506425 0.981141 -8.249158
v 7.506425 1.981141 -7.249158
v 7.506425 0.981141 -7.249158
v 6.906425 1.981141 -7.249158
v 6.906425 0.981141 -7.249158
vn -0.0000 -1.0000 -0.0000
vn 1.0000 -0.0000 -0.0000
vn -0.0000 -0.0000 -1.0000
vn -1.0000 -0.0000 -0.0000
vn -0.0000 1.0000 -0.0000
vn -0.0000 -0.0000 1.0000
vt 0.125000 0.500000
vt 0.375000 0.250000
vt 0.375000 0.500000
vt 0.125000 0.525000
vt 0.375000 0.225000
vt 0.375000 0.525000
vt 0.475000 0.250000
vt 0.425000 0.250000
vt 0.475000 0.500000
vt 0.425000 0.500000
vt 0.475000 0.525000
vt 0.425000 0.525000
vt 0.475000 0.225000
vt 0.425000 0.225000
s 0
f 1/1/1 2/3/1 4/6/1 3/4/1
f 2/3/2 8/10/2 10/12/2 4/6/2
f 8/10/2 7/9/2 9/11/2 10/12/2
f 1/2/3 6/8/3 8/10/3 2/3/3
f 6/8/3 5/7/3 7/9/3 8/10/3
f 3/5/4 12/14/4 6/8/4 1/2/4
f 12/14/4 11/13/4 5/7/4 6/8/4
f 7/9/5 5/7/5 11/13/5 9/11/5
f 10/12/6 9/11/6 11/13/6 12/14/6
f 3/5/6 4/6/6 10/12/6 12/14/6
