# Blender 3.5.1
# www.blender.org
mtllib LE_blockout_couch.mtl
o Cube.001
v -0.200000 -1.000000 1.000000
v -0.200000 -0.400000 1.000000
v -0.200000 -1.000000 0.000000
v -0.200000 -0.400000 0.000000
v 1.000000 -1.000000 1.000000
v 1.000000 -0.400000 1.000000
v 1.000000 -1.000000 0.000000
v 1.000000 -0.400000 0.000000
v -0.200000 -1.000000 0.250000
v -0.200000 -1.000000 0.750000
v -0.200000 -0.400000 0.750000
v -0.200000 -0.400000 0.500000
v -0.200000 -0.400000 0.250000
v 1.000000 -1.000000 0.750000
v 1.000000 -1.000000 0.250000
v 1.000000 -0.400000 0.250000
v 1.000000 -0.400000 0.500000
v 1.000000 -0.400000 0.750000
v 0.760000 -1.000000 0.000000
v 0.040000 -1.000000 0.000000
v 0.040000 -0.400000 0.000000
v 0.280000 -0.400000 0.000000
v 0.520000 -0.400000 0.000000
v 0.760000 -0.400000 0.000000
v 0.040000 -1.000000 1.000000
v 0.760000 -1.000000 1.000000
v 0.760000 -0.400000 1.000000
v 0.520000 -0.400000 1.000000
v 0.280000 -0.400000 1.000000
v 0.040000 -0.400000 1.000000
v 0.040000 -0.400000 0.250000
v 0.280000 -0.400000 0.250000
v 0.520000 -0.400000 0.250000
v 0.760000 -0.400000 0.250000
v 0.040000 -0.400000 0.500000
v 0.280000 -0.400000 0.500000
v 0.520000 -0.400000 0.500000
v 0.760000 -0.400000 0.500000
v 0.040000 -0.400000 0.750000
v 0.280000 -0.400000 0.750000
v 0.520000 -0.400000 0.750000
v 0.760000 -0.400000 0.750000
v 0.760000 -1.000000 0.250000
v 0.040000 -1.000000 0.250000
v 0.760000 -1.000000 0.750000
v 0.040000 -1.000000 0.750000
v -0.200000 0.000000 0.250000
v -0.200000 0.000000 0.000000
v 0.760000 0.000000 0.000000
v 1.000000 0.000000 0.000000
v 1.000000 0.000000 0.750000
v 1.000000 0.000000 1.000000
v 0.040000 0.000000 1.000000
v -0.200000 0.000000 1.000000
v -0.200000 0.000000 0.750000
v -0.200000 0.000000 0.500000
v 1.000000 0.000000 0.250000
v 1.000000 0.000000 0.500000
v 0.760000 0.000000 0.250000
v 0.760000 0.000000 0.500000
v 0.760000 0.000000 0.750000
v 0.040000 0.000000 0.000000
v 0.760000 0.000000 1.000000
v 0.520000 0.000000 1.000000
v 0.280000 0.000000 1.000000
v 0.040000 0.000000 0.250000
v 0.040000 0.000000 0.500000
v 0.040000 0.000000 0.750000
v 0.280000 0.000000 0.750000
v 0.520000 0.000000 0.750000
v -0.200000 -0.772825 0.250000
v -0.200000 -0.772825 0.500000
v -0.200000 -0.772825 0.750000
v 1.000000 -0.772825 0.750000
v 1.000000 -0.772825 0.500000
v 1.000000 -0.772825 0.250000
v 0.040000 -0.772825 0.250000
v 0.040000 -0.772825 0.500000
v 0.040000 -0.772825 0.750000
v 0.760000 -0.772825 0.000000
v 0.520000 -0.772825 0.000000
v 0.280000 -0.772825 0.000000
v 0.040000 -0.772825 0.000000
v 0.040000 -0.772825 1.000000
v 0.280000 -0.772825 1.000000
v 0.520000 -0.772825 1.000000
v 0.760000 -0.772825 1.000000
v 0.760000 -0.772825 0.250000
v 0.520000 -0.772825 0.250000
v 0.280000 -0.772825 0.250000
v 0.760000 -0.772825 0.500000
v 0.520000 -0.772825 0.500000
v 0.280000 -0.772825 0.500000
v 0.760000 -0.772825 0.750000
v 0.520000 -0.772825 0.750000
v 0.280000 -0.772825 0.750000
vn -1.0000 -0.0000 -0.0000
vn -0.0000 -0.0000 -1.0000
vn 1.0000 -0.0000 -0.0000
vn -0.0000 -0.0000 1.0000
vn -0.0000 -1.0000 -0.0000
vn -0.0000 1.0000 -0.0000
vt 0.375000 1.000000
vt 0.375000 0.000000
vt 0.125000 0.750000
vt 0.625000 0.000000
vt 0.625000 1.000000
vt 0.125000 0.500000
vt 0.375000 0.250000
vt 0.625000 0.250000
vt 0.375000 0.750000
vt 0.625000 0.750000
vt 0.375000 0.500000
vt 0.625000 0.500000
vt 0.125000 0.562500
vt 0.375000 0.187500
vt 0.125000 0.687500
vt 0.375000 0.062500
vt 0.625000 0.062500
vt 0.625000 0.125000
vt 0.625000 0.187500
vt 0.375000 0.687500
vt 0.375000 0.562500
vt 0.625000 0.562500
vt 0.625000 0.625000
vt 0.625000 0.687500
vt 0.375000 0.450000
vt 0.325000 0.500000
vt 0.175000 0.500000
vt 0.375000 0.300000
vt 0.625000 0.300000
vt 0.825000 0.500000
vt 0.775000 0.500000
vt 0.725000 0.500000
vt 0.675000 0.500000
vt 0.625000 0.450000
vt 0.175000 0.750000
vt 0.375000 0.950000
vt 0.325000 0.750000
vt 0.375000 0.800000
vt 0.625000 0.800000
vt 0.625000 0.850000
vt 0.625000 0.900000
vt 0.625000 0.950000
vt 0.825000 0.562500
vt 0.775000 0.562500
vt 0.725000 0.562500
vt 0.675000 0.562500
vt 0.825000 0.625000
vt 0.775000 0.625000
vt 0.725000 0.625000
vt 0.675000 0.625000
vt 0.825000 0.687500
vt 0.775000 0.687500
vt 0.725000 0.687500
vt 0.675000 0.687500
vt 0.325000 0.562500
vt 0.175000 0.562500
vt 0.325000 0.687500
vt 0.175000 0.687500
vt 0.875000 0.562500
vt 0.625000 0.187500
vt 0.875000 0.500000
vt 0.625000 0.250000
vt 0.625000 0.450000
vt 0.675000 0.500000
vt 0.625000 0.500000
vt 0.625000 0.687500
vt 0.625000 0.750000
vt 0.825000 0.750000
vt 0.625000 0.950000
vt 0.625000 0.000000
vt 0.875000 0.750000
vt 0.625000 1.000000
vt 0.875000 0.687500
vt 0.625000 0.062500
vt 0.875000 0.625000
vt 0.625000 0.125000
vt 0.625000 0.562500
vt 0.625000 0.625000
vt 0.675000 0.562500
vt 0.675000 0.625000
vt 0.675000 0.687500
vt 0.825000 0.500000
vt 0.625000 0.300000
vt 0.675000 0.750000
vt 0.625000 0.800000
vt 0.625000 0.850000
vt 0.725000 0.750000
vt 0.625000 0.900000
vt 0.775000 0.750000
vt 0.825000 0.562500
vt 0.825000 0.625000
vt 0.825000 0.687500
vt 0.775000 0.687500
vt 0.725000 0.687500
vt 0.125000 0.562500
vt 0.125000 0.625000
vt 0.125000 0.687500
vt 0.375000 0.687500
vt 0.375000 0.625000
vt 0.375000 0.562500
vt 0.175000 0.562500
vt 0.175000 0.625000
vt 0.175000 0.687500
vt 0.325000 0.500000
vt 0.275000 0.500000
vt 0.225000 0.500000
vt 0.175000 0.500000
vt 0.175000 0.750000
vt 0.225000 0.750000
vt 0.275000 0.750000
vt 0.325000 0.750000
vt 0.325000 0.562500
vt 0.275000 0.562500
vt 0.225000 0.562500
vt 0.325000 0.625000
vt 0.275000 0.625000
vt 0.225000 0.625000
vt 0.325000 0.687500
vt 0.275000 0.687500
vt 0.225000 0.687500
s 0
f 9/14/1 13/19/1 4/8/1 3/7/1
f 19/25/2 24/34/2 8/12/2 7/11/2
f 14/20/3 18/24/3 6/10/3 5/9/3
f 25/36/4 30/42/4 2/5/4 1/1/4
f 45/57/5 14/20/5 5/9/5 26/37/5
f 6/10/3 18/24/3 51/66/3 52/67/3
f 11/17/1 2/4/1 54/70/1 55/74/1
f 17/23/3 16/22/3 57/77/3 58/78/3
f 24/33/1 34/46/1 59/79/1 49/64/1
f 19/26/5 7/11/5 15/21/5 43/55/5
f 14/20/2 45/57/2 94/118/2 74/98/2
f 7/11/3 8/12/3 16/22/3 15/21/3
f 1/2/1 2/4/1 11/17/1 10/16/1
f 43/55/4 15/21/4 76/100/4 88/112/4
f 9/13/4 44/56/4 77/101/4 71/95/4
f 45/57/1 26/37/1 87/111/1 94/118/1
f 44/56/3 20/27/3 83/107/3 77/101/3
f 3/6/5 20/27/5 44/56/5 9/13/5
f 25/35/3 46/58/3 79/103/3 84/108/3
f 30/42/4 29/41/4 65/88/4 53/69/4
f 38/50/6 37/49/6 41/53/6 42/54/6
f 37/49/6 36/48/6 40/52/6 41/53/6
f 36/48/6 35/47/6 39/51/6 40/52/6
f 38/50/1 42/54/1 61/81/1 60/80/1
f 34/46/6 33/45/6 37/49/6 38/50/6
f 33/45/6 32/44/6 36/48/6 37/49/6
f 32/44/6 31/43/6 35/47/6 36/48/6
f 16/22/3 8/12/3 50/65/3 57/77/3
f 24/33/6 23/32/6 33/45/6 34/46/6
f 23/32/6 22/31/6 32/44/6 33/45/6
f 22/31/6 21/30/6 31/43/6 32/44/6
f 35/47/3 31/43/3 66/90/3 67/91/3
f 29/41/4 28/40/4 64/86/4 65/88/4
f 8/12/2 24/34/2 49/63/2 50/65/2
f 28/40/4 27/39/4 63/85/4 64/86/4
f 10/15/5 46/58/5 25/35/5 1/3/5
f 46/58/2 10/15/2 73/97/2 79/103/2
f 5/9/4 6/10/4 27/39/4 26/38/4
f 3/7/2 4/8/2 21/29/2 20/28/2
f 68/92/6 55/73/6 54/71/6 53/68/6
f 62/82/6 48/61/6 47/59/6 66/90/6
f 66/90/6 47/59/6 56/75/6 67/91/6
f 67/91/6 56/75/6 55/73/6 68/92/6
f 58/78/6 60/80/6 61/81/6 51/66/6
f 57/77/6 59/79/6 60/80/6 58/78/6
f 50/65/6 49/64/6 59/79/6 57/77/6
f 51/66/6 61/81/6 63/84/6 52/67/6
f 61/81/6 70/94/6 64/87/6 63/84/6
f 70/94/6 69/93/6 65/89/6 64/87/6
f 69/93/6 68/92/6 53/68/6 65/89/6
f 18/24/3 17/23/3 58/78/3 51/66/3
f 12/18/1 11/17/1 55/74/1 56/76/1
f 40/52/2 39/51/2 68/92/2 69/93/2
f 4/8/1 13/19/1 47/60/1 48/62/1
f 39/51/3 35/47/3 67/91/3 68/92/3
f 13/19/1 12/18/1 56/76/1 47/60/1
f 31/43/3 21/30/3 62/82/3 66/90/3
f 41/53/2 40/52/2 69/93/2 70/94/2
f 21/29/2 4/8/2 48/62/2 62/83/2
f 34/46/1 38/50/1 60/80/1 59/79/1
f 2/5/4 30/42/4 53/69/4 54/72/4
f 27/39/4 6/10/4 52/67/4 63/85/4
f 42/54/2 41/53/2 70/94/2 61/81/2
f 88/112/5 76/100/5 75/99/5 91/115/5
f 91/115/5 75/99/5 74/98/5 94/118/5
f 72/96/5 78/102/5 79/103/5 73/97/5
f 78/102/5 93/117/5 96/120/5 79/103/5
f 93/117/5 92/116/5 95/119/5 96/120/5
f 92/116/5 91/115/5 94/118/5 95/119/5
f 71/95/5 77/101/5 78/102/5 72/96/5
f 77/101/5 90/114/5 93/117/5 78/102/5
f 90/114/5 89/113/5 92/116/5 93/117/5
f 89/113/5 88/112/5 91/115/5 92/116/5
f 83/107/5 82/106/5 90/114/5 77/101/5
f 82/106/5 81/105/5 89/113/5 90/114/5
f 81/105/5 80/104/5 88/112/5 89/113/5
f 79/103/5 96/120/5 85/109/5 84/108/5
f 96/120/5 95/119/5 86/110/5 85/109/5
f 95/119/5 94/118/5 87/111/5 86/110/5
f 19/26/1 43/55/1 88/112/1 80/104/1
f 13/19/1 9/14/1 71/95/1 72/96/1 12/18/1
f 11/17/1 12/18/1 72/96/1 73/97/1 10/16/1
f 17/23/3 18/24/3 14/20/3 74/98/3 75/99/3
f 16/22/3 17/23/3 75/99/3 76/100/3 15/21/3
f 23/32/2 24/34/2 19/26/2 80/104/2 81/105/2
f 22/31/2 23/32/2 81/105/2 82/106/2
f 21/30/2 22/31/2 82/106/2 83/107/2
f 30/42/4 25/36/4 84/108/4 85/109/4 29/41/4
f 28/40/4 29/41/4 85/109/4 86/110/4
f 27/39/4 28/40/4 86/110/4 87/111/4 26/38/4
