# Blender 3.5.1
# www.blender.org
mtllib LE_staircase.mtl
o Circle
v -1.864689 0.924627 7.495633
v -1.874621 0.924627 7.161640
v -0.361088 0.924627 7.321652
v -0.372694 0.924627 7.141104
v -1.864689 0.865677 7.495633
v -1.874621 0.865677 7.161640
v -0.361088 0.865677 7.321652
v -0.372694 0.865677 7.141104
v -1.811315 1.113560 7.769592
v -1.874804 1.113560 7.441539
v -0.355231 1.113560 7.356187
v -0.395708 1.113560 7.179852
v -1.811315 1.054609 7.769592
v -1.874804 1.054609 7.441539
v -0.355231 1.054609 7.356187
v -0.395708 1.054609 7.179852
v -1.714600 1.302493 8.031410
v -1.829994 1.302493 7.717827
v -0.343900 1.302493 7.389331
v -0.412194 1.302493 7.221795
v -1.714600 1.243542 8.031410
v -1.829994 1.243542 7.717827
v -0.343900 1.243542 7.389331
v -0.412194 1.243542 7.221795
v -1.577058 1.491425 8.274278
v -1.741357 1.491425 7.983320
v -0.327388 1.491425 7.420223
v -0.421723 1.491425 7.265843
v -1.577058 1.432474 8.274278
v -1.741357 1.432474 7.983320
v -0.327388 1.432474 7.420223
v -0.421723 1.432474 7.265843
v -1.402267 1.680358 8.491879
v -1.611197 1.680358 8.231113
v -0.306125 1.680358 7.448060
v -0.424049 1.680358 7.310850
v -1.402267 1.621407 8.491879
v -1.611197 1.621407 8.231113
v -0.306125 1.621407 7.448060
v -0.424049 1.621407 7.310850
v -1.194771 1.869290 8.678555
v -1.442900 1.869290 8.454763
v -0.280665 1.869290 7.472116
v -0.419110 1.869290 7.355646
v -1.194771 1.810340 8.678555
v -1.442900 1.810340 8.454763
v -0.280665 1.810340 7.472116
v -0.419110 1.810340 7.355646
v -0.959968 2.058223 8.829451
v -1.240842 2.058223 8.648454
v -0.251669 2.058223 7.491767
v -0.407035 2.058223 7.399065
v -0.959968 1.999272 8.829451
v -1.240842 1.999272 8.648454
v -0.251669 1.999272 7.491767
v -0.407035 1.999272 7.399065
v -0.703963 2.247156 8.940642
v -1.010278 2.247156 8.807146
v -0.219891 2.247156 7.506502
v -0.388138 2.247156 7.439979
v -0.703963 2.188205 8.940642
v -1.010278 2.188205 8.807146
v -0.219891 2.188205 7.506502
v -0.388138 2.188205 7.439979
v -0.433414 2.436088 9.009239
v -0.757204 2.436088 8.926715
v -0.186158 2.436088 7.515938
v -0.362910 2.436088 7.477323
v -0.433414 2.377137 9.009239
v -0.757204 2.377137 8.926715
v -0.186158 2.377137 7.515938
v -0.362910 2.377137 7.477323
v -0.155357 2.625021 9.033456
v -0.488201 2.625021 9.004050
v -0.151347 2.625021 7.519828
v -0.332007 2.625021 7.510126
v -0.155357 2.566070 9.033456
v -0.488201 2.566070 9.004050
v -0.151347 2.566070 7.519828
v -0.332007 2.566070 7.510126
v -1.871041 0.674218 7.190095
v -1.871041 0.734218 7.190095
v -1.871041 0.674218 6.890095
v -1.871041 0.734218 6.890095
v -0.371041 0.674218 7.190095
v -0.371041 0.734218 7.190095
v -0.371041 0.674218 6.890095
v -0.371041 0.734218 6.890095
v -1.871041 0.484320 6.926301
v -1.871041 0.544320 6.926301
v -1.871041 0.484320 6.626301
v -1.871041 0.544320 6.626301
v -0.371041 0.484320 6.926301
v -0.371041 0.544320 6.926301
v -0.371041 0.484320 6.626301
v -0.371041 0.544320 6.626301
v 0.093370 2.760572 9.056776
v 0.093370 2.820572 9.056776
v -0.206630 2.760572 9.056776
v -0.206630 2.820572 9.056776
v 0.093370 2.760572 7.556776
v 0.093370 2.820572 7.556776
v -0.206630 2.760572 7.556776
v -0.206630 2.820572 7.556776
v -1.871041 0.674218 7.190095
v -1.871041 0.734218 7.190095
v -1.871041 0.674218 6.890095
v -1.871041 0.734218 6.890095
v -0.371041 0.674218 7.190095
v -0.371041 0.734218 7.190095
v -0.371041 0.674218 6.890095
v -0.371041 0.734218 6.890095
v 0.332475 2.939901 9.056775
v 0.332475 2.999901 9.056775
v 0.032475 2.939901 9.056776
v 0.032475 2.999901 9.056776
v 0.332475 2.939901 7.556776
v 0.332475 2.999901 7.556776
v 0.032475 2.939901 7.556776
v 0.032475 2.999901 7.556776
v -1.871041 0.296761 6.685896
v -1.871041 0.356761 6.685896
v -1.871041 0.296761 6.385897
v -1.871041 0.356761 6.385897
v -0.371041 0.296761 6.685896
v -0.371041 0.356761 6.685896
v -0.371041 0.296761 6.385897
v -0.371041 0.356761 6.385897
v -1.871041 0.110503 6.454155
v -1.871041 0.170502 6.454155
v -1.871041 0.110503 6.154155
v -1.871041 0.170502 6.154155
v -0.371041 0.110503 6.454155
v -0.371041 0.170502 6.454155
v -0.371041 0.110503 6.154155
v -0.371041 0.170502 6.154155
vn -0.0000 1.0000 -0.0000
vn -0.0000 -1.0000 -0.0000
vn 0.1149 -0.0000 0.9934
vn -0.9996 -0.0000 0.0297
vn -0.0137 -0.0000 -0.9999
vn 0.9979 -0.0000 -0.0642
vn 0.2731 -0.0000 0.9620
vn -0.9818 -0.0000 0.1900
vn -0.1742 -0.0000 -0.9847
vn 0.9747 -0.0000 -0.2237
vn 0.4242 -0.0000 0.9056
vn -0.9385 -0.0000 0.3453
vn -0.3302 -0.0000 -0.9439
vn 0.9260 -0.0000 -0.3775
vn 0.5642 -0.0000 0.8256
vn -0.8708 -0.0000 0.4917
vn -0.4777 -0.0000 -0.8785
vn 0.8533 -0.0000 -0.5214
vn 0.6896 -0.0000 0.7242
vn -0.7804 -0.0000 0.6253
vn -0.6127 -0.0000 -0.7903
vn 0.7584 -0.0000 -0.6518
vn 0.7970 -0.0000 0.6039
vn -0.6698 -0.0000 0.7426
vn -0.7317 -0.0000 -0.6816
vn 0.6438 -0.0000 -0.7652
vn 0.8838 -0.0000 0.4679
vn -0.5417 -0.0000 0.8406
vn -0.8318 -0.0000 -0.5551
vn 0.5124 -0.0000 -0.8588
vn 0.9475 -0.0000 0.3198
vn -0.3995 -0.0000 0.9167
vn -0.9102 -0.0000 -0.4142
vn 0.3677 -0.0000 -0.9299
vn 0.9866 -0.0000 0.1634
vn -0.2470 -0.0000 0.9690
vn -0.9649 -0.0000 -0.2625
vn 0.2134 -0.0000 -0.9770
vn 1.0000 -0.0000 0.0026
vn -0.0880 -0.0000 0.9961
vn -0.9946 -0.0000 -0.1040
vn 0.0536 -0.0000 -0.9986
vn -1.0000 -0.0000 -0.0000
vn -0.0000 -0.0000 -1.0000
vn 1.0000 -0.0000 -0.0000
vn -0.0000 -0.0000 1.0000
vt 0.000000 0.000000
vt 0.000000 0.000000
vt 0.000000 0.000000
vt 0.000000 0.000000
vt 0.000000 0.000000
vt 0.000000 0.000000
vt 0.000000 0.000000
vt 0.000000 0.000000
vt 0.000000 0.000000
vt 0.000000 0.000000
vt 0.000000 0.000000
vt 0.000000 0.000000
vt 0.000000 0.000000
vt 0.000000 0.000000
vt 0.000000 0.000000
vt 0.000000 0.000000
vt 0.000000 0.000000
vt 0.000000 0.000000
vt 0.000000 0.000000
vt 0.000000 0.000000
vt 0.000000 0.000000
vt 0.000000 0.000000
vt 0.000000 0.000000
vt 0.000000 0.000000
vt 0.000000 0.000000
vt 0.000000 0.000000
vt 0.000000 0.000000
vt 0.000000 0.000000
vt 0.000000 0.000000
vt 0.000000 0.000000
vt 0.000000 0.000000
vt 0.000000 0.000000
vt 0.000000 0.000000
vt 0.000000 0.000000
vt 0.000000 0.000000
vt 0.000000 0.000000
vt 0.000000 0.000000
vt 0.000000 0.000000
vt 0.000000 0.000000
vt 0.000000 0.000000
vt 0.000000 0.000000
vt 0.000000 0.000000
vt 0.000000 0.000000
vt 0.000000 0.000000
vt 0.000000 0.000000
vt 0.000000 0.000000
vt 0.000000 0.000000
vt 0.000000 0.000000
vt 0.000000 0.000000
vt 0.000000 0.000000
vt 0.000000 0.000000
vt 0.000000 0.000000
vt 0.000000 0.000000
vt 0.000000 0.000000
vt 0.000000 0.000000
vt 0.000000 0.000000
vt 0.000000 0.000000
vt 0.000000 0.000000
vt 0.000000 0.000000
vt 0.000000 0.000000
vt 0.000000 0.000000
vt 0.000000 0.000000
vt 0.000000 0.000000
vt 0.000000 0.000000
vt 0.000000 0.000000
vt 0.000000 0.000000
vt 0.000000 0.000000
vt 0.000000 0.000000
vt 0.000000 0.000000
vt 0.000000 0.000000
vt 0.000000 0.000000
vt 0.000000 0.000000
vt 0.000000 0.000000
vt 0.000000 0.000000
vt 0.000000 0.000000
vt 0.000000 0.000000
vt 0.000000 0.000000
vt 0.000000 0.000000
vt 0.000000 0.000000
vt 0.000000 0.000000
vt 0.375000 0.000000
vt 0.375000 1.000000
vt 0.125000 0.750000
vt 0.625000 0.000000
vt 0.625000 1.000000
vt 0.875000 0.750000
vt 0.375000 0.250000
vt 0.125000 0.500000
vt 0.625000 0.250000
vt 0.875000 0.500000
vt 0.375000 0.750000
vt 0.625000 0.750000
vt 0.375000 0.500000
vt 0.625000 0.500000
vt 0.375000 0.000000
vt 0.375000 1.000000
vt 0.125000 0.750000
vt 0.625000 0.000000
vt 0.625000 1.000000
vt 0.875000 0.750000
vt 0.375000 0.250000
vt 0.125000 0.500000
vt 0.625000 0.250000
vt 0.875000 0.500000
vt 0.375000 0.750000
vt 0.625000 0.750000
vt 0.375000 0.500000
vt 0.625000 0.500000
vt 0.375000 0.000000
vt 0.375000 1.000000
vt 0.125000 0.750000
vt 0.625000 0.000000
vt 0.625000 1.000000
vt 0.875000 0.750000
vt 0.375000 0.250000
vt 0.125000 0.500000
vt 0.625000 0.250000
vt 0.875000 0.500000
vt 0.375000 0.750000
vt 0.625000 0.750000
vt 0.375000 0.500000
vt 0.625000 0.500000
vt 0.375000 0.000000
vt 0.375000 1.000000
vt 0.125000 0.750000
vt 0.625000 0.000000
vt 0.625000 1.000000
vt 0.875000 0.750000
vt 0.375000 0.250000
vt 0.125000 0.500000
vt 0.625000 0.250000
vt 0.875000 0.500000
vt 0.375000 0.750000
vt 0.625000 0.750000
vt 0.375000 0.500000
vt 0.625000 0.500000
vt 0.375000 0.000000
vt 0.375000 1.000000
vt 0.125000 0.750000
vt 0.625000 0.000000
vt 0.625000 1.000000
vt 0.875000 0.750000
vt 0.375000 0.250000
vt 0.125000 0.500000
vt 0.625000 0.250000
vt 0.875000 0.500000
vt 0.375000 0.750000
vt 0.625000 0.750000
vt 0.375000 0.500000
vt 0.625000 0.500000
vt 0.375000 0.000000
vt 0.375000 1.000000
vt 0.125000 0.750000
vt 0.625000 0.000000
vt 0.625000 1.000000
vt 0.875000 0.750000
vt 0.375000 0.250000
vt 0.125000 0.500000
vt 0.625000 0.250000
vt 0.875000 0.500000
vt 0.375000 0.750000
vt 0.625000 0.750000
vt 0.375000 0.500000
vt 0.625000 0.500000
vt 0.375000 0.000000
vt 0.375000 1.000000
vt 0.125000 0.750000
vt 0.625000 0.000000
vt 0.625000 1.000000
vt 0.875000 0.750000
vt 0.375000 0.250000
vt 0.125000 0.500000
vt 0.625000 0.250000
vt 0.875000 0.500000
vt 0.375000 0.750000
vt 0.625000 0.750000
vt 0.375000 0.500000
vt 0.625000 0.500000
s 0
f 1/1/1 3/3/1 4/4/1 2/2/1
f 5/5/2 6/6/2 8/8/2 7/7/2
f 3/3/3 1/1/3 5/5/3 7/7/3
f 1/1/4 2/2/4 6/6/4 5/5/4
f 2/2/5 4/4/5 8/8/5 6/6/5
f 4/4/6 3/3/6 7/7/6 8/8/6
f 9/9/1 11/11/1 12/12/1 10/10/1
f 13/13/2 14/14/2 16/16/2 15/15/2
f 11/11/7 9/9/7 13/13/7 15/15/7
f 9/9/8 10/10/8 14/14/8 13/13/8
f 10/10/9 12/12/9 16/16/9 14/14/9
f 12/12/10 11/11/10 15/15/10 16/16/10
f 17/17/1 19/19/1 20/20/1 18/18/1
f 21/21/2 22/22/2 24/24/2 23/23/2
f 19/19/11 17/17/11 21/21/11 23/23/11
f 17/17/12 18/18/12 22/22/12 21/21/12
f 18/18/13 20/20/13 24/24/13 22/22/13
f 20/20/14 19/19/14 23/23/14 24/24/14
f 25/25/1 27/27/1 28/28/1 26/26/1
f 29/29/2 30/30/2 32/32/2 31/31/2
f 27/27/15 25/25/15 29/29/15 31/31/15
f 25/25/16 26/26/16 30/30/16 29/29/16
f 26/26/17 28/28/17 32/32/17 30/30/17
f 28/28/18 27/27/18 31/31/18 32/32/18
f 33/33/1 35/35/1 36/36/1 34/34/1
f 37/37/2 38/38/2 40/40/2 39/39/2
f 35/35/19 33/33/19 37/37/19 39/39/19
f 33/33/20 34/34/20 38/38/20 37/37/20
f 34/34/21 36/36/21 40/40/21 38/38/21
f 36/36/22 35/35/22 39/39/22 40/40/22
f 41/41/1 43/43/1 44/44/1 42/42/1
f 45/45/2 46/46/2 48/48/2 47/47/2
f 43/43/23 41/41/23 45/45/23 47/47/23
f 41/41/24 42/42/24 46/46/24 45/45/24
f 42/42/25 44/44/25 48/48/25 46/46/25
f 44/44/26 43/43/26 47/47/26 48/48/26
f 49/49/1 51/51/1 52/52/1 50/50/1
f 53/53/2 54/54/2 56/56/2 55/55/2
f 51/51/27 49/49/27 53/53/27 55/55/27
f 49/49/28 50/50/28 54/54/28 53/53/28
f 50/50/29 52/52/29 56/56/29 54/54/29
f 52/52/30 51/51/30 55/55/30 56/56/30
f 57/57/1 59/59/1 60/60/1 58/58/1
f 61/61/2 62/62/2 64/64/2 63/63/2
f 59/59/31 57/57/31 61/61/31 63/63/31
f 57/57/32 58/58/32 62/62/32 61/61/32
f 58/58/33 60/60/33 64/64/33 62/62/33
f 60/60/34 59/59/34 63/63/34 64/64/34
f 65/65/1 67/67/1 68/68/1 66/66/1
f 69/69/2 70/70/2 72/72/2 71/71/2
f 67/67/35 65/65/35 69/69/35 71/71/35
f 65/65/36 66/66/36 70/70/36 69/69/36
f 66/66/37 68/68/37 72/72/37 70/70/37
f 68/68/38 67/67/38 71/71/38 72/72/38
f 73/73/1 75/75/1 76/76/1 74/74/1
f 77/77/2 78/78/2 80/80/2 79/79/2
f 75/75/39 73/73/39 77/77/39 79/79/39
f 73/73/40 74/74/40 78/78/40 77/77/40
f 74/74/41 76/76/41 80/80/41 78/78/41
f 76/76/42 75/75/42 79/79/42 80/80/42
f 81/81/43 82/84/43 84/89/43 83/87/43
f 83/87/44 84/89/44 88/94/44 87/93/44
f 87/93/45 88/94/45 86/92/45 85/91/45
f 85/91/46 86/92/46 82/85/46 81/82/46
f 83/88/2 87/93/2 85/91/2 81/83/2
f 88/94/1 84/90/1 82/86/1 86/92/1
f 89/95/43 90/98/43 92/103/43 91/101/43
f 91/101/44 92/103/44 96/108/44 95/107/44
f 95/107/45 96/108/45 94/106/45 93/105/45
f 93/105/46 94/106/46 90/99/46 89/96/46
f 91/102/2 95/107/2 93/105/2 89/97/2
f 96/108/1 92/104/1 90/100/1 94/106/1
f 97/109/46 98/112/46 100/117/46 99/115/46
f 99/115/43 100/117/43 104/122/43 103/121/43
f 103/121/44 104/122/44 102/120/44 101/119/44
f 101/119/45 102/120/45 98/113/45 97/110/45
f 99/116/2 103/121/2 101/119/2 97/111/2
f 104/122/1 100/118/1 98/114/1 102/120/1
f 105/123/43 106/126/43 108/131/43 107/129/43
f 107/129/44 108/131/44 112/136/44 111/135/44
f 111/135/45 112/136/45 110/134/45 109/133/45
f 109/133/46 110/134/46 106/127/46 105/124/46
f 107/130/2 111/135/2 109/133/2 105/125/2
f 112/136/1 108/132/1 106/128/1 110/134/1
f 113/137/46 114/140/46 116/145/46 115/143/46
f 115/143/43 116/145/43 120/150/43 119/149/43
f 119/149/44 120/150/44 118/148/44 117/147/44
f 117/147/45 118/148/45 114/141/45 113/138/45
f 115/144/2 119/149/2 117/147/2 113/139/2
f 120/150/1 116/146/1 114/142/1 118/148/1
f 121/151/43 122/154/43 124/159/43 123/157/43
f 123/157/44 124/159/44 128/164/44 127/163/44
f 127/163/45 128/164/45 126/162/45 125/161/45
f 125/161/46 126/162/46 122/155/46 121/152/46
f 123/158/2 127/163/2 125/161/2 121/153/2
f 128/164/1 124/160/1 122/156/1 126/162/1
f 129/165/43 130/168/43 132/173/43 131/171/43
f 131/171/44 132/173/44 136/178/44 135/177/44
f 135/177/45 136/178/45 134/176/45 133/175/45
f 133/175/46 134/176/46 130/169/46 129/166/46
f 131/172/2 135/177/2 133/175/2 129/167/2
f 136/178/1 132/174/1 130/170/1 134/176/1
